<svg xmlns="http://www.w3.org/2000/svg" viewBox="0 0 420 64" role="img" aria-label="cocode ASCII logo"><g fill="#FAFAFA" shape-rendering="crispEdges"><rect x="10" y="8" width="10" height="8"/><rect x="20" y="0" width="10" height="16"/><rect x="30" y="0" width="10" height="16"/><rect x="40" y="0" width="10" height="16"/><rect x="50" y="0" width="10" height="16"/><rect x="60" y="0" width="10" height="16"/><rect x="80" y="8" width="10" height="8"/><rect x="90" y="0" width="10" height="16"/><rect x="100" y="0" width="10" height="16"/><rect x="110" y="0" width="10" height="16"/><rect x="120" y="0" width="10" height="16"/><rect x="130" y="8" width="10" height="8"/><rect x="150" y="8" width="10" height="8"/><rect x="160" y="0" width="10" height="16"/><rect x="170" y="0" width="10" height="16"/><rect x="180" y="0" width="10" height="16"/><rect x="190" y="0" width="10" height="16"/><rect x="200" y="0" width="10" height="16"/><rect x="220" y="8" width="10" height="8"/><rect x="230" y="0" width="10" height="16"/><rect x="240" y="0" width="10" height="16"/><rect x="250" y="0" width="10" height="16"/><rect x="260" y="0" width="10" height="16"/><rect x="270" y="8" width="10" height="8"/><rect x="290" y="0" width="10" height="16"/><rect x="300" y="0" width="10" height="16"/><rect x="310" y="0" width="10" height="16"/><rect x="320" y="0" width="10" height="16"/><rect x="330" y="0" width="10" height="16"/><rect x="340" y="8" width="10" height="8"/><rect x="360" y="8" width="10" height="8"/><rect x="370" y="0" width="10" height="16"/><rect x="380" y="0" width="10" height="16"/><rect x="390" y="0" width="10" height="16"/><rect x="400" y="0" width="10" height="16"/><rect x="410" y="0" width="10" height="16"/><rect x="10" y="16" width="10" height="16"/><rect x="20" y="16" width="10" height="16"/><rect x="80" y="16" width="10" height="16"/><rect x="90" y="16" width="10" height="16"/><rect x="120" y="16" width="10" height="16"/><rect x="130" y="16" width="10" height="16"/><rect x="150" y="16" width="10" height="16"/><rect x="160" y="16" width="10" height="16"/><rect x="220" y="16" width="10" height="16"/><rect x="230" y="16" width="10" height="16"/><rect x="260" y="16" width="10" height="16"/><rect x="270" y="16" width="10" height="16"/><rect x="290" y="16" width="10" height="16"/><rect x="300" y="16" width="10" height="16"/><rect x="330" y="16" width="10" height="16"/><rect x="340" y="16" width="10" height="16"/><rect x="360" y="16" width="10" height="16"/><rect x="370" y="16" width="10" height="16"/><rect x="380" y="24" width="10" height="8"/><rect x="390" y="24" width="10" height="8"/><rect x="10" y="32" width="10" height="16"/><rect x="20" y="32" width="10" height="16"/><rect x="80" y="32" width="10" height="16"/><rect x="90" y="32" width="10" height="16"/><rect x="120" y="32" width="10" height="16"/><rect x="130" y="32" width="10" height="16"/><rect x="150" y="32" width="10" height="16"/><rect x="160" y="32" width="10" height="16"/><rect x="220" y="32" width="10" height="16"/><rect x="230" y="32" width="10" height="16"/><rect x="260" y="32" width="10" height="16"/><rect x="270" y="32" width="10" height="16"/><rect x="290" y="32" width="10" height="16"/><rect x="300" y="32" width="10" height="16"/><rect x="330" y="32" width="10" height="16"/><rect x="340" y="32" width="10" height="16"/><rect x="360" y="32" width="10" height="16"/><rect x="370" y="32" width="10" height="16"/><rect x="380" y="32" width="10" height="8"/><rect x="390" y="32" width="10" height="8"/><rect x="10" y="48" width="10" height="8"/><rect x="20" y="48" width="10" height="16"/><rect x="30" y="48" width="10" height="16"/><rect x="40" y="48" width="10" height="16"/><rect x="50" y="48" width="10" height="16"/><rect x="60" y="48" width="10" height="16"/><rect x="80" y="48" width="10" height="8"/><rect x="90" y="48" width="10" height="16"/><rect x="100" y="48" width="10" height="16"/><rect x="110" y="48" width="10" height="16"/><rect x="120" y="48" width="10" height="16"/><rect x="130" y="48" width="10" height="8"/><rect x="150" y="48" width="10" height="8"/><rect x="160" y="48" width="10" height="16"/><rect x="170" y="48" width="10" height="16"/><rect x="180" y="48" width="10" height="16"/><rect x="190" y="48" width="10" height="16"/><rect x="200" y="48" width="10" height="16"/><rect x="220" y="48" width="10" height="8"/><rect x="230" y="48" width="10" height="16"/><rect x="240" y="48" width="10" height="16"/><rect x="250" y="48" width="10" height="16"/><rect x="260" y="48" width="10" height="16"/><rect x="270" y="48" width="10" height="8"/><rect x="290" y="48" width="10" height="16"/><rect x="300" y="48" width="10" height="16"/><rect x="310" y="48" width="10" height="16"/><rect x="320" y="48" width="10" height="16"/><rect x="330" y="48" width="10" height="16"/><rect x="340" y="48" width="10" height="8"/><rect x="360" y="48" width="10" height="8"/><rect x="370" y="48" width="10" height="16"/><rect x="380" y="48" width="10" height="16"/><rect x="390" y="48" width="10" height="16"/><rect x="400" y="48" width="10" height="16"/><rect x="410" y="48" width="10" height="16"/></g></svg>